<mxfile host="65bd71144e">
    <diagram id="bjiwIFPa3C7VZGjJZWLB" name="Page-1">
        <mxGraphModel dx="1201" dy="1172" grid="1" gridSize="10" guides="1" tooltips="1" connect="1" arrows="1" fold="1" page="1" pageScale="1" pageWidth="827" pageHeight="1169" background="none" math="0" shadow="0">
            <root>
                <mxCell id="0"/>
                <mxCell id="1" parent="0"/>
                <mxCell id="OgdQoFX8DZ056ajtmQ7H-3" value="Серия и номер паспорта" style="ellipse;whiteSpace=wrap;html=1;" parent="1" vertex="1">
                    <mxGeometry x="160" y="400" width="120" height="80" as="geometry"/>
                </mxCell>
                <mxCell id="OgdQoFX8DZ056ajtmQ7H-4" value="ФИО" style="ellipse;whiteSpace=wrap;html=1;" parent="1" vertex="1">
                    <mxGeometry x="160" y="240" width="120" height="80" as="geometry"/>
                </mxCell>
                <mxCell id="OgdQoFX8DZ056ajtmQ7H-7" value="Место прописки" style="ellipse;whiteSpace=wrap;html=1;" parent="1" vertex="1">
                    <mxGeometry x="480" y="400" width="120" height="80" as="geometry"/>
                </mxCell>
                <mxCell id="OgdQoFX8DZ056ajtmQ7H-8" value="" style="endArrow=block;html=1;rounded=0;endFill=1;startArrow=doubleBlock;startFill=1;" parent="1" source="OgdQoFX8DZ056ajtmQ7H-3" target="OgdQoFX8DZ056ajtmQ7H-4" edge="1">
                    <mxGeometry width="50" height="50" relative="1" as="geometry">
                        <mxPoint x="310" y="360" as="sourcePoint"/>
                        <mxPoint x="250" y="320" as="targetPoint"/>
                    </mxGeometry>
                </mxCell>
                <mxCell id="OgdQoFX8DZ056ajtmQ7H-10" value="" style="endArrow=block;html=1;rounded=0;endFill=1;startArrow=doubleBlock;startFill=1;" parent="1" source="OgdQoFX8DZ056ajtmQ7H-3" target="OgdQoFX8DZ056ajtmQ7H-7" edge="1">
                    <mxGeometry width="50" height="50" relative="1" as="geometry">
                        <mxPoint x="429.93259705582363" y="380.14562982017003" as="sourcePoint"/>
                        <mxPoint x="510.1381696702049" y="319.8963727473464" as="targetPoint"/>
                    </mxGeometry>
                </mxCell>
                <mxCell id="OgdQoFX8DZ056ajtmQ7H-20" value="" style="endArrow=doubleBlock;html=1;rounded=0;endFill=1;startArrow=doubleBlock;startFill=1;" parent="1" source="OgdQoFX8DZ056ajtmQ7H-7" target="OgdQoFX8DZ056ajtmQ7H-4" edge="1">
                    <mxGeometry width="50" height="50" relative="1" as="geometry">
                        <mxPoint x="240" y="490.5594681126694" as="sourcePoint"/>
                        <mxPoint x="491.90524980688883" y="300" as="targetPoint"/>
                    </mxGeometry>
                </mxCell>
                <mxCell id="ZcmavpFxTmtDWOKtgYsY-1" value="Дата рождения клиента" style="ellipse;whiteSpace=wrap;html=1;" parent="1" vertex="1">
                    <mxGeometry x="480" y="240" width="120" height="80" as="geometry"/>
                </mxCell>
                <mxCell id="ZcmavpFxTmtDWOKtgYsY-3" value="" style="endArrow=block;html=1;rounded=0;endFill=1;startArrow=doubleBlock;startFill=1;" parent="1" source="OgdQoFX8DZ056ajtmQ7H-3" target="ZcmavpFxTmtDWOKtgYsY-1" edge="1">
                    <mxGeometry width="50" height="50" relative="1" as="geometry">
                        <mxPoint x="165.54465957938817" y="394.87399895382737" as="sourcePoint"/>
                        <mxPoint x="494.46718262766126" y="305.14531382881967" as="targetPoint"/>
                    </mxGeometry>
                </mxCell>
                <mxCell id="ZcmavpFxTmtDWOKtgYsY-4" value="" style="endArrow=doubleBlock;html=1;rounded=0;endFill=1;startArrow=doubleBlock;startFill=1;" parent="1" source="ZcmavpFxTmtDWOKtgYsY-1" target="OgdQoFX8DZ056ajtmQ7H-7" edge="1">
                    <mxGeometry width="50" height="50" relative="1" as="geometry">
                        <mxPoint x="596.7179882264861" y="376.7179882264861" as="sourcePoint"/>
                        <mxPoint x="543.2820117735139" y="323.2820117735139" as="targetPoint"/>
                    </mxGeometry>
                </mxCell>
                <mxCell id="ZcmavpFxTmtDWOKtgYsY-5" value="" style="endArrow=doubleBlock;html=1;rounded=0;endFill=1;startArrow=doubleBlock;startFill=1;" parent="1" source="ZcmavpFxTmtDWOKtgYsY-1" target="OgdQoFX8DZ056ajtmQ7H-4" edge="1">
                    <mxGeometry width="50" height="50" relative="1" as="geometry">
                        <mxPoint x="636.7179882264861" y="443.2820117735139" as="sourcePoint"/>
                        <mxPoint x="583.2820117735139" y="496.7179882264861" as="targetPoint"/>
                    </mxGeometry>
                </mxCell>
            </root>
        </mxGraphModel>
    </diagram>
</mxfile>